# xmcd
#
# Track frame offsets:
#	150
#	16709
#	37462
#	50981
#	60129
#	79774
#	91547
#	103398
#	120511
#	129221
#	146242
#
# Disc length: 2108 seconds
#
# Revision: 1
# Processed by: cddbd v1.5.2PL0 Copyright (c) Steve Scherf et al.
# Submitted via: audiograbber 1.83.01
#
DISCID=8f083a0b
DTITLE=Gravewürm - Doomed to Eternity
DYEAR=2015
DGENRE=Metal
TTITLE0=Shining Night Gleam
TTITLE1=Fangs of the Serpent
TTITLE2=The Abyss Calls and I Shall Answer
TTITLE3=Sepulchral Sorceress
TTITLE4=Bury My Coffin
TTITLE5=Ancient Storms of War
TTITLE6=Soul Stalker
TTITLE7=The Wolves of Isengard
TTITLE8=Lair of the Gravewurm
TTITLE9=Doomed to Eternity
TTITLE10=The One True Soul of Darkness
EXTD=
EXTT0=
EXTT1=
EXTT2=
EXTT3=
EXTT4=
EXTT5=
EXTT6=
EXTT7=
EXTT8=
EXTT9=
EXTT10=
PLAYORDER=
